<?xml version="1.0" standalone="no"?>
<!DOCTYPE svg PUBLIC "-//W3C//DTD SVG 20010904//EN"
 "http://www.w3.org/TR/2001/REC-SVG-20010904/DTD/svg10.dtd">
<svg version="1.0" xmlns="http://www.w3.org/2000/svg"
 width="1024.000000pt" height="1024.000000pt" viewBox="0 0 1024.000000 1024.000000"
 preserveAspectRatio="xMidYMid meet">
<metadata>
Created by potrace 1.11, written by Peter Selinger 2001-2013
</metadata>
<g transform="translate(0.000000,1024.000000) scale(0.100000,-0.100000)"
fill="#000000" stroke="none">
<path d="M3945 9705 c-111 -20 -284 -73 -346 -106 -169 -90 -316 -279 -404
-519 -25 -65 -28 -91 -30 -200 -2 -137 -15 -182 -60 -202 -30 -13 -86 -3 -117
21 -24 19 -160 59 -428 126 -253 64 -422 96 -531 102 -120 6 -149 -2 -149 -44
0 -55 147 -161 460 -332 106 -58 196 -114 211 -132 38 -44 90 -149 96 -196 5
-35 2 -43 -22 -61 -26 -21 -33 -21 -233 -16 -233 7 -344 -5 -492 -52 -166 -52
-271 -116 -451 -273 -134 -117 -180 -175 -187 -236 -4 -37 -1 -47 22 -70 l27
-27 157 7 c265 11 422 -25 473 -108 39 -64 17 -109 -96 -198 -219 -172 -509
-455 -665 -650 -358 -448 -548 -839 -695 -1436 -31 -125 -69 -268 -85 -318
-38 -121 -43 -147 -31 -177 20 -52 78 -41 170 32 46 37 296 162 381 190 90 31
182 38 215 16 13 -9 27 -27 30 -39 7 -27 -46 -201 -78 -254 -58 -99 -18 -534
99 -1083 74 -348 218 -925 309 -1240 230 -799 801 -1345 1730 -1655 513 -170
1108 -255 1795 -255 401 0 665 19 970 71 1381 234 2517 741 3170 1415 479 495
701 1028 751 1804 52 803 -200 1671 -715 2464 -201 310 -490 667 -606 748
-198 139 -390 315 -442 406 -51 86 -30 137 68 169 39 13 89 16 236 15 103 -1
198 2 211 7 78 30 77 83 -3 190 -121 163 -323 384 -477 523 -470 421 -936 653
-1457 723 -167 23 -411 16 -571 -15 -141 -27 -296 -36 -353 -21 -24 7 -49 22
-58 35 -14 22 -14 28 1 63 28 66 86 142 143 184 173 131 272 238 272 294 0 30
-6 36 -70 74 -142 85 -287 121 -479 121 -311 -1 -634 -92 -1036 -292 -204
-102 -347 -215 -387 -305 l-19 -44 -102 53 c-91 47 -104 58 -124 98 -26 50
-30 118 -12 201 10 44 24 67 95 147 144 164 161 239 59 262 -49 12 -53 11
-140 -5z m-2021 -820 c-4 -8 -8 -15 -10 -15 -2 0 -4 7 -4 15 0 8 4 15 10 15 5
0 7 -7 4 -15z m1809 -1750 c678 -124 1204 -650 1322 -1322 8 -49 15 -103 15
-120 0 -18 5 -33 10 -33 6 0 10 15 10 33 0 50 28 198 56 295 152 525 581 954
1107 1106 165 48 259 60 457 60 198 0 292 -12 457 -60 526 -152 955 -581 1107
-1107 48 -165 60 -259 60 -457 0 -198 -12 -292 -60 -457 -152 -526 -581 -955
-1107 -1107 -165 -48 -259 -60 -457 -60 -198 0 -292 12 -457 60 -526 152 -955
581 -1107 1106 -28 97 -56 245 -56 296 0 17 -4 32 -10 32 -5 0 -10 -15 -10
-32 0 -18 -7 -72 -15 -121 -58 -330 -214 -628 -454 -868 -241 -241 -529 -391
-874 -456 -128 -24 -426 -24 -554 0 -345 65 -633 215 -874 456 -241 241 -391
529 -456 874 -24 128 -24 426 0 554 136 724 681 1241 1417 1343 93 13 370 4
473 -15z m-3323 -2520 c7 -9 8 -15 2 -15 -5 0 -12 7 -16 15 -3 8 -4 15 -2 15
2 0 9 -7 16 -15z m6670 -2773 c0 -19 23 -40 51 -47 26 -6 51 -48 42 -70 -3 -9
5 -17 21 -21 14 -3 26 -11 27 -18 9 -131 12 -117 -38 -163 -26 -24 -43 -46
-39 -50 4 -5 13 -1 20 9 6 9 28 19 48 22 32 5 39 2 63 -30 16 -21 33 -33 41
-30 18 7 19 -25 2 -43 -11 -12 -10 -13 6 -7 16 5 17 4 6 -9 -7 -8 -20 -15 -28
-15 -14 0 -14 -2 1 -12 15 -12 15 -15 -1 -36 -19 -24 -52 -22 -52 4 0 9 -11
14 -33 14 -20 0 -42 8 -55 20 l-22 20 -5 -23 c-3 -12 -4 -40 -1 -62 2 -22 5
-46 5 -53 1 -7 6 -10 11 -7 13 8 13 3 0 -30 -9 -24 -8 -27 7 -21 15 5 15 3 -2
-11 -16 -14 -20 -30 -19 -75 0 -51 -3 -61 -32 -92 -32 -35 -32 -36 -28 -117 3
-57 1 -86 -8 -97 -11 -13 -10 -15 4 -9 12 4 15 2 11 -9 -3 -7 -15 -14 -26 -14
-19 0 -20 -1 -3 -13 17 -12 17 -14 -1 -36 -19 -24 -53 -21 -53 5 0 9 -12 14
-34 14 -19 0 -38 5 -41 10 -3 6 -15 10 -26 10 -10 0 -19 5 -19 11 0 5 5 7 10
4 6 -3 10 -4 10 0 0 3 -10 9 -22 14 -18 6 -23 17 -25 47 -3 49 -3 90 1 129 5
45 5 45 21 45 8 0 15 5 15 12 0 6 7 19 15 28 11 12 13 27 6 68 -4 28 -5 49 -1
47 4 -3 14 2 21 11 11 14 10 19 -9 34 -23 19 -29 40 -12 40 6 0 10 9 10 20 0
11 -4 20 -10 20 -5 0 -7 7 -4 15 4 8 1 15 -6 15 -6 0 -8 5 -4 13 5 8 2 8 -9
-2 -15 -12 -17 -11 -17 2 0 9 -9 18 -20 22 -11 3 -28 17 -39 31 -10 13 -24 24
-30 24 -15 0 -14 33 1 48 8 8 8 12 1 12 -6 0 -16 -7 -23 -15 -22 -26 -29 -6
-26 65 3 66 -5 89 -18 55 -9 -24 -27 -17 -22 8 3 12 7 34 10 48 3 15 14 29 26
32 11 3 20 14 20 24 0 10 14 30 30 45 17 14 30 36 30 47 0 24 10 27 28 9 8 -8
12 -9 12 -1 0 22 63 73 100 82 22 5 41 6 45 3 3 -3 5 -1 5 5 0 7 13 7 40 0 22
-6 40 -17 40 -25z m-363 -354 c-3 -8 -6 -5 -6 6 -1 11 2 17 5 13 3 -3 4 -12 1
-19z m178 -298 c3 -5 1 -10 -4 -10 -6 0 -11 5 -11 10 0 6 2 10 4 10 3 0 8 -4
11 -10z m-11 -54 c-6 -15 -24 -23 -24 -11 0 8 24 34 28 30 1 -1 0 -10 -4 -19z
m3 -88 c-3 -8 -6 -5 -6 6 -1 11 2 17 5 13 3 -3 4 -12 1 -19z"/>
<path d="M3397 5980 c-32 -69 -117 -165 -186 -209 -54 -35 -135 -65 -203 -75
-29 -4 -49 -13 -53 -24 -14 -33 -17 -197 -6 -254 27 -130 138 -277 257 -340
144 -77 344 -77 488 0 65 34 174 143 208 208 77 144 77 344 0 488 -34 65 -143
174 -208 208 -64 34 -153 58 -219 58 l-50 0 -28 -60z"/>
<path d="M6657 5980 c-32 -69 -117 -165 -186 -209 -54 -35 -135 -65 -203 -75
-29 -4 -49 -13 -53 -24 -14 -33 -17 -197 -6 -254 19 -91 67 -176 140 -248 106
-105 214 -150 361 -150 147 0 255 45 360 150 105 105 150 213 150 360 0 147
-45 255 -150 360 -98 98 -214 150 -335 150 l-50 0 -28 -60z"/>
<path d="M7175 1470 c-9 -10 -15 -26 -11 -35 3 -9 2 -13 -4 -10 -13 8 -13 -25
0 -45 7 -12 10 -11 15 5 12 37 23 50 39 49 10 -1 15 3 11 10 -3 6 -8 19 -11
29 -8 22 -17 22 -39 -3z"/>
<path d="M7280 1395 c-10 -12 -10 -15 4 -15 9 0 16 7 16 15 0 8 -2 15 -4 15
-2 0 -9 -7 -16 -15z"/>
<path d="M6931 1224 c0 -11 3 -14 6 -6 3 7 2 16 -1 19 -3 4 -6 -2 -5 -13z"/>
<path d="M6973 1135 c0 -8 4 -12 9 -9 5 3 6 10 3 15 -9 13 -12 11 -12 -6z"/>
<path d="M6909 993 c-13 -15 -12 -15 9 -4 23 12 28 21 13 21 -5 0 -15 -7 -22
-17z"/>
<path d="M6900 794 c0 -8 5 -12 10 -9 6 4 8 11 5 16 -9 14 -15 11 -15 -7z"/>
</g>
</svg>
